<svg xmlns="http://www.w3.org/2000/svg" width="151.076" height="166.667" viewBox="0 0 151.07629 166.66667"><path d="M.469 163c1.134-8.866 13.736-120.512 13.736-121.69 0-.77 5.43-1.31 13.15-1.31h13.15l.897-7.667c1.161-9.924 4.96-17.627 11.695-23.711C60.29 2.123 65.817 0 75.538 0 85.26 0 90.787 2.123 97.98 8.622c6.734 6.084 10.533 13.787 11.695 23.711l.897 7.667h13.15c7.72 0 13.15.54 13.15 1.31 0 1.178 12.602 112.824 13.735 121.69l.47 3.667H0zm142.472-7.333c-.395-2.384-3.126-25.934-6.07-52.334-2.943-26.4-5.674-49.95-6.069-52.333l-.718-4.333h-19.88v4.588c0 2.523.6 4.958 1.334 5.412 3.568 2.205-.541 11.333-5.102 11.333-4.946 0-9.36-8.988-5.565-11.333.734-.454 1.334-2.889 1.334-5.412v-4.588H48.87v4.588c0 2.523.6 4.958 1.334 5.412C53.772 58.872 49.663 68 45.103 68c-4.947 0-9.36-8.988-5.565-11.333.733-.454 1.333-2.889 1.333-5.412v-4.588H20.992L20.262 51c-.401 2.383-3.112 25.633-6.022 51.667C11.329 128.7 8.623 152.25 8.227 155l-.72 5h136.152zM101.974 31.49c-.619-9.708-3.938-15.728-11.551-20.945-3.95-2.706-6.298-3.213-14.885-3.213s-10.935.507-14.884 3.213C53.04 15.763 49.72 21.783 49.103 31.491L48.56 40h53.954z" fill="#0b0b0b"/></svg>