<svg xmlns="http://www.w3.org/2000/svg" width="169.516" height="169.352" viewBox="0 0 169.51553 169.35235"><path d="M66.67 167.87C26.402 158.699-2.25 120.778.14 79.812 1.4 58.181 9.544 40.207 25.155 24.595 35.38 14.37 44.934 8.335 58.591 3.478 67.143.437 70.463 0 85.038 0c14.574 0 17.894.437 26.446 3.478 13.658 4.857 23.211 10.89 33.437 21.116 10.226 10.226 16.26 19.78 21.116 33.437 3.042 8.552 3.479 11.872 3.479 26.447 0 14.574-.437 17.894-3.479 26.446-4.857 13.658-10.89 23.211-21.116 33.437-16.213 16.213-33.86 23.979-56.55 24.884-8.62.344-16.291-.142-21.7-1.374zm42.7-8.822c24.244-8.123 41.847-25.767 50.452-50.57 2.444-7.043 3.007-11.54 3.007-24s-.563-16.957-3.007-24c-9.468-27.291-31.213-46.943-58.29-52.68C45.798-4.01-3.45 45.238 8.358 100.972c6.467 30.521 31.91 55.327 62.347 60.783 10.292 1.844 28.985.536 38.665-2.707zm-54.562-46.02c-.559-1.458 2.543-5.51 9.953-13 9.102-9.202 10.659-11.414 10.077-14.316-.488-2.434.314-4.624 2.756-7.526l3.444-4.093V47.394c0-14.684.364-27.647.81-28.807 1.046-2.728 5.334-2.728 6.38 0 .446 1.16.81 14.123.81 28.807 0 26.533.02 26.723 3.333 30.66 4.38 5.205 4.206 8.423-.72 13.349-3.199 3.199-4.838 3.896-7.776 3.309-3.276-.655-4.984.525-14.248 9.844-10.68 10.743-13.36 12.275-14.819 8.471z" fill="#0e0e0e"/></svg>