<svg xmlns="http://www.w3.org/2000/svg" width="156.488" height="149.71" viewBox="0 0 156.4884 149.71045"><path d="M18.262 149.265c0-.542 1.203-2.674 2.674-4.738 3.828-5.376 9.3-17.525 9.304-20.658.002-1.579-1.99-4.025-4.882-5.995C14.442 110.438 3.444 91.998.728 76.578c-4.023-22.84 8.94-48.98 31.419-63.36 47.463-30.36 114.67-5.6 123.593 45.536 4.624 26.501-12.56 55.423-40.71 68.513-14.177 6.593-23.327 8.307-41.299 7.738-14.381-.456-14.936-.367-19.525 3.144-7.468 5.714-18.798 10.308-27.725 11.24-4.52.473-8.219.417-8.219-.124zm22.183-9.96c3.034-1.377 7.944-4.698 10.912-7.379l5.396-4.875 10.755 1.473c39.367 5.39 75.323-17.494 81.744-52.026 5.374-28.897-15.234-57.238-49.06-67.466-12.726-3.848-34.422-3.255-47.7 1.304-12.797 4.394-22.269 10.352-30.45 19.153-23.336 25.103-19.899 62.396 7.688 83.419 7.324 5.581 7.379 5.676 6.634 11.415-.412 3.183-1.92 8.433-3.35 11.667-2.384 5.387-2.413 5.876-.343 5.85 1.242-.016 4.74-1.157 7.774-2.534z" fill="#0d0d0d"/></svg>