<svg xmlns="http://www.w3.org/2000/svg" width="170.667" height="122.667" viewBox="0 0 170.66667 122.66666"><path d="M0 61.333V0h170.667v122.667H0zm163.95 50.334c-.048-4.016-1.873-5.767-24.93-23.92-28.182-22.187-23.394-20.968-37.46-9.537-12.204 9.919-22.364 9.129-36.15-2.811-7.156-6.197-8.77-7.057-10.672-5.684-1.232.89-12.541 9.718-25.131 19.618-21.199 16.67-22.893 18.32-22.916 22.334L6.667 116H164l-.05-4.333zM31 79.527c10.817-8.545 19.627-15.985 19.578-16.532-.09-1.012-40.823-36.627-42.82-37.44-.6-.244-1.091 16.2-1.091 36.54 0 35.1.119 36.883 2.333 34.977 1.283-1.104 11.183-8.999 22-17.545zM163.448 25.67c-.716-.716-43.232 35.895-43.36 37.336-.048.554 9.662 8.738 21.579 18.187l21.666 17.181.355-36.054c.196-19.83.088-36.322-.24-36.65zM91.043 76.846c2.36-1.002 19.59-15.18 38.29-31.507 30.577-26.697 34.042-30.139 34.414-34.18l.414-4.492H6.506l.414 4.523c.373 4.08 3.674 7.366 33.633 33.486 18.27 15.93 35.07 30.092 37.333 31.472 4.903 2.99 7.44 3.124 13.157.698z" fill="#040404"/></svg>