<svg xmlns="http://www.w3.org/2000/svg" width="156.599" height="137.197" viewBox="0 0 156.59927 137.19687"><path d="M76.379 136.058c-.403-.652-8.689-6.617-18.412-13.254-21.335-14.563-33.506-24.873-42.002-35.58C-8.06 56.953-4.577 20.382 23.77 5.273c15.799-8.42 33.405-6.694 48.388 4.747l6.13 4.68 6.13-4.68c18.907-14.437 42.918-13.06 59.385 3.406 14.652 14.652 16.87 36.936 5.888 59.152-8.613 17.423-21.996 30.469-52.333 51.014-8.945 6.058-16.63 11.608-17.079 12.334-1.013 1.64-2.929 1.705-3.9.133zm21.242-20.983c22.023-15.032 39.667-32.245 45.614-44.498 11.284-23.247 7.27-46.49-9.909-57.384-18.274-11.589-38.812-7.622-52.044 10.05-2.94 3.927-3.032 3.952-4.997 1.334C66.74 11.862 55.008 5.896 41.595 6.933 17.875 8.768 2.701 29.828 7.62 54.085c4.267 21.045 20.023 39.677 52.002 61.495 9.9 6.754 18.6 12.066 19.333 11.804.734-.263 9.134-5.801 18.667-12.309z" fill="#0b0b0b"/></svg>