<svg xmlns="http://www.w3.org/2000/svg" width="169.256" height="169.986" viewBox="0 0 169.25645 169.98633"><path d="M16.676 124.37V78.753l-6.38 6.283C3.43 91.8 1.447 92.585.1 89.073c-.612-1.595 1.58-4.784 7.564-11 4.635-4.814 16.209-16.845 25.72-26.735C75.788 7.244 84.077-.827 86.044.063c1.08.49 10.577 9.972 21.102 21.073a14355.04 14355.04 0 0 0 41.018 43.029c15.61 16.298 21.643 23.463 21.053 25-1.31 3.416-3.34 2.591-10.162-4.129l-6.38-6.283v91.233h-136zm44 2.95v-36h48v72h37.333V71.894l-29.856-31.24C99.73 23.475 85.734 9.229 85.048 9c-.688-.23-14.851 13.812-31.478 31.202L23.342 71.821v91.499h37.334zm41.333 3.333V97.986H67.342v65.334h34.667zm33.566-86.42c-2.38-2.532-2.9-4.682-2.9-12 0-8.619-.11-8.913-3.333-8.913-2.92 0-3.333.577-3.333 4.666 0 2.567-.566 4.667-1.258 4.667-2.45 0-5.409-5.996-5.409-10.963v-5.037h20v15.333c0 8.434-.195 15.334-.434 15.334s-1.739-1.389-3.333-3.086z" fill="#050505"/></svg>