<svg xmlns="http://www.w3.org/2000/svg" width="170.667" height="144.557" viewBox="0 0 170.66669 144.55702"><path d="M.007 141.557c.037-14.605 9.932-24.32 34.842-34.205C45.965 102.941 48 100.553 48 91.917c0-3.961-.553-7.544-1.228-7.962-.676-.417-2.276-3.603-3.556-7.078-1.28-3.476-3.536-7.674-5.012-9.329-2.379-2.665-2.73-5.18-3.081-22-.49-23.475 1.15-30.519 8.692-37.332C50.41 2.26 57.12-.02 68 0c7.24.014 10.014.74 16.853 4.414 8.16 4.382 8.2 4.389 11.94 1.937 2.863-1.877 6.297-2.46 14.48-2.46 9.862.002 11.343.373 18.368 4.6 11.715 7.05 12.69 10.256 11.46 37.673-.409 9.117-1.193 13.648-2.652 15.334-1.14 1.316-3.667 5.936-5.615 10.267-2.664 5.92-3.328 9.02-2.677 12.493.81 4.318 1.704 5.008 13.688 10.564 7.052 3.27 14.837 7.477 17.3 9.351 4.929 3.75 9.447 12.342 9.492 18.05l.03 3.667h-19.38c-19.176 0-19.365.03-17.906 2.756.81 1.515 1.942 5.715 2.514 9.333l1.04 6.578H0zm129.326-4.4c0-.403-.869-2.414-1.932-4.468-3.298-6.378-10.411-11.421-24.487-17.361-18.039-7.612-21.58-11.466-21.58-23.484 0-6.652.57-9.191 2.5-11.121 1.376-1.376 3.278-5.533 4.228-9.238 1.147-4.474 2.545-6.95 4.165-7.374 1.78-.465 2.44-1.904 2.44-5.318 0-2.574-.625-4.889-1.388-5.143-.914-.305-.645-3.639.79-9.778 3.811-16.315.754-27.614-8.294-30.648-2.186-.734-4.95-2.311-6.143-3.506-5.33-5.342-22.86-3.881-30.493 2.54-7.619 6.411-9.555 16.479-6.292 32.723 1.17 5.827 1.143 7.981-.118 9.501-2.042 2.46-.568 10.075 1.949 10.075 1.027 0 2.686 3.049 3.863 7.099 1.135 3.904 3.344 8.254 4.908 9.666 2.545 2.298 2.753 3.465 1.974 11.096-.479 4.69-1.456 9.621-2.171 10.958-1.668 3.117-10.046 8.01-22.527 13.157-5.425 2.237-11.858 5.589-14.296 7.448C12.222 127.19 8 133.456 8 136.49c0 .956 19.198 1.4 60.667 1.4 33.366 0 60.666-.33 60.666-.734zm33.334-19.889c0-4.058-8.996-10.858-20.885-15.786-15.355-6.364-18.106-9.205-18.848-19.46-.48-6.633-.138-8.261 2.231-10.63 1.539-1.539 3.174-5.154 3.635-8.034.57-3.57 1.637-5.445 3.352-5.894 2.657-.694 3.499-5.999 1.318-8.307-.71-.751-.414-5.084.725-10.65 2.424-11.834.658-18.85-5.528-21.961-2.2-1.107-5.484-3.057-7.297-4.334-3.75-2.64-12.258-3.035-18.504-.858-2.31.805-4.2 1.63-4.2 1.832 0 .203.954 2.995 2.119 6.203 1.655 4.56 1.901 8.166 1.125 16.501-.546 5.867-.875 14.297-.73 18.735.214 6.623-.321 8.926-2.992 12.862-1.79 2.637-3.683 6.207-4.207 7.933-.523 1.725-2.083 5.008-3.466 7.294-3.563 5.89-3.321 14.491.514 18.327 1.667 1.666 8.417 5.267 15 8.002 6.584 2.734 13.471 6.13 15.304 7.547 2.931 2.264 5.627 2.578 22.334 2.604 15.821.025 19-.297 19-1.926z" fill="#0b0b0b"/></svg>