<svg xmlns="http://www.w3.org/2000/svg" width="115.333" height="153.473" viewBox="0 0 115.33334 153.47334"><path d="M3.741 150.255L0 147.038V63.909l3.741-3.218c2.84-2.443 5.295-3.218 10.193-3.218h6.452l.528-15.666C21.51 24.07 23.29 19.15 32.22 10.547c15.526-14.963 39.296-13.88 53.665 2.445 7.247 8.232 9.448 15.545 9.448 31.385v13.095h6.487c4.544 0 7.54.828 10 2.764L115.333 63v84.946l-3.513 2.764c-3.413 2.685-4.943 2.763-53.925 2.763H7.482zM108 105.473V64.807H8l-.354 39.318c-.195 21.624-.06 40.082.298 41.016.515 1.342 11.072 1.625 50.354 1.349l49.702-.35zm-54.571 15.238c-1.263-1.262-2.096-4.4-2.096-7.891 0-3.189-1.01-7.557-2.244-9.707-1.911-3.33-1.993-4.515-.552-7.994 2.321-5.603 8.544-8.175 13.313-5.501 1.916 1.074 4.272 3.592 5.235 5.596 1.484 3.087 1.433 4.282-.333 7.823-1.147 2.299-2.085 6.694-2.085 9.768 0 8.464-6.27 12.875-11.238 7.906zm35.238-75.737c0-14.625-2.202-22.145-8.39-28.658-14.992-15.78-41.34-11.344-50.439 8.49-1.858 4.053-2.453 8.618-2.475 19l-.03 13.667h61.334z" fill="#0d0d0d"/></svg>