<svg xmlns="http://www.w3.org/2000/svg" width="170.116" height="170.371" viewBox="0 0 170.11633 170.37059"><path d="M126.463 168.438c-10.399-2.797-28.453-12.56-42.198-22.82-15.367-11.47-48.164-44.243-59.793-59.751C7.31 62.983-3.217 36.549.887 26.643c.942-2.275 6.751-8.905 12.91-14.735C26.327.047 31.614-2.177 37.738 1.836c4.616 3.024 27.194 37.769 27.194 41.847 0 1.76-2.5 7.891-5.554 13.624L53.824 67.73l6.508 7.735c8.329 9.9 24.423 25.995 34.302 34.307l7.703 6.48 6.468-3.52c12.494-6.8 14.155-7.515 17.486-7.523 4.23-.01 38.88 22.415 42.005 27.185 3.958 6.04 1.77 11.379-9.62 23.488-14.417 15.325-17.482 16.52-32.213 12.556zM147.17 158.2c7.63-6.996 16.428-17.938 16.428-20.43 0-1.983-34.773-25.91-37.632-25.893-.936.005-6.46 2.728-12.276 6.05-5.816 3.322-11.254 5.78-12.083 5.461-3.694-1.417-22.343-17.583-32.723-28.366-10.345-10.746-22.62-25.646-22.62-27.456 0-.4 2.696-5.445 5.99-11.212 3.295-5.768 5.995-11.253 6-12.189.017-2.86-23.91-37.631-25.894-37.631-4.66 0-26.096 20.554-26.096 25.023 0 5.326 4.347 18.583 9.024 27.52 16.408 31.355 64.432 79.369 95.808 95.788 9.364 4.9 20.944 8.743 26.865 8.914 1.79.052 5.556-2.229 9.209-5.579z" fill="#0b0b0b"/></svg>