<svg xmlns="http://www.w3.org/2000/svg" width="146.35" height="148.616" viewBox="0 0 146.35042 148.61604"><path d="M114.102 126.477l-22.14-22.139-8.497 4.177C60.308 119.9 35.9 115.795 17.543 97.43c-9.492-9.497-14.788-19.555-16.85-32-4.003-24.155 9.652-49.399 32.914-60.85C42.502.202 43.56 0 57.607 0 71.374 0 72.87.27 81.313 4.269c12.441 5.893 22.563 15.817 28.608 28.047 4.13 8.356 4.956 11.536 5.452 20.995.703 13.383-2.65 26.28-9.172 35.282l-4.177 5.767 22.163 22.192 22.163 22.192-5.054 4.936-5.055 4.936zm-37.607-22.035c27.362-10.085 40.147-42.397 27.484-69.459C98.792 23.9 91.078 16.194 79.836 10.868c-8.109-3.842-10.01-4.201-22.201-4.201-11.652 0-14.288.447-20.9 3.547-26.128 12.248-37.19 43.834-24.46 69.85 4.046 8.27 15.801 19.768 23.853 23.33 12.402 5.486 27.277 5.872 40.367 1.048z" fill="#0b0b0b"/></svg>