<svg xmlns="http://www.w3.org/2000/svg" width="142.272" height="142.481" viewBox="0 0 142.27205 142.48083"><path d="M77.846 139.592c-1.053-1.65-7.164-13.562-13.581-26.47l-11.667-23.47-25.216-12.53C13.514 70.23 1.513 63.812.714 62.858c-1.066-1.273-.951-2.225.433-3.58 1.037-1.015 32.731-15.117 70.432-31.338C130.022 2.795 140.4-1.28 141.975.297c1.577 1.576-2.501 11.954-27.666 70.405-16.233 37.706-30.135 69.306-30.893 70.223-1.988 2.405-3.4 2.067-5.57-1.333zm27.076-64.667c12.76-29.883 23.481-54.933 23.825-55.667.343-.733-15.1 14.316-34.318 33.443L59.486 87.477l10.42 20.89c5.73 11.49 10.734 20.891 11.118 20.891.384 0 11.138-24.45 23.898-54.333zM89.708 47.779C108.77 28.63 123.72 13.18 122.931 13.445c-5.41 1.809-109.898 47.287-109.899 47.833 0 .627 39.778 21.06 41.343 21.237.372.042 16.272-15.59 35.333-34.736z" fill="#0b0b0b"/></svg>