<svg xmlns="http://www.w3.org/2000/svg" width="170.667" height="170.667" viewBox="0 0 170.66667 170.66667"><path d="M71.472 167c-.407-2.017-1.402-7.635-2.211-12.486l-1.472-8.82-7.07-2.402-7.069-2.403-9.67 7.033-9.669 7.033-9.33-9.33-9.329-9.33 6.96-9.967 6.96-9.967-2.418-6.807c-2.634-7.416-1.677-6.907-18.154-9.658l-9-1.503V72.212l3.667-.74c2.016-.407 7.607-1.397 12.422-2.2l8.756-1.46 2.39-7.03 2.39-7.031-6.945-9.732-6.944-9.732 9.317-9.317 9.318-9.318 10.043 7.012 10.043 7.013 6.674-2.4 6.675-2.4 1.463-8.772c.805-4.824 1.796-10.422 2.203-12.438L72.212 0h26.18l1.504 9c2.68 16.052 2.417 15.493 8.485 18 3.106 1.283 6.378 2.333 7.271 2.333.894 0 5.879-3.103 11.078-6.897l9.453-6.897 9.276 9.277 9.277 9.276-7.218 10.37-7.219 10.37 2.74 6.486 2.74 6.486 8.778 1.464c4.827.805 10.426 1.797 12.443 2.204l3.667.74v26.18l-9 1.504c-16.401 2.739-15.626 2.347-18.6 9.386l-2.75 6.51 7.397 10.204 7.396 10.204-9.356 9.356-9.355 9.356-10.301-7.299-10.301-7.298-6.513 2.752c-7.041 2.975-6.65 2.198-9.388 18.6l-1.503 9H72.212zm23.193-14.921l2.002-11.255 7.786-3.015c4.282-1.658 8.584-3.676 9.558-4.485 1.359-1.127 3.981.104 11.22 5.269 5.195 3.707 9.865 6.74 10.377 6.74 1.4 0 9.725-8.34 9.725-9.742 0-.67-2.991-5.332-6.648-10.36l-6.649-9.14 2.535-4.379c1.394-2.408 3.25-6.823 4.123-9.81l1.587-5.432 11.526-1.902 11.526-1.901.394-7.465.394-7.465-11.9-1.705-11.901-1.706-1.607-5.496c-.884-3.023-2.767-7.499-4.183-9.945l-2.576-4.449 6.69-9.198c3.679-5.058 6.69-9.628 6.69-10.154 0-1.418-8.326-9.75-9.743-9.75-.67 0-5.332 2.991-10.36 6.648l-9.14 6.648-4.379-2.534c-2.408-1.394-6.823-3.25-9.81-4.123l-5.432-1.588-1.902-11.526-1.901-11.526-7.443-.393-7.443-.393-1.71 11.491c-1.558 10.468-2.023 11.613-5.224 12.856-1.932.75-6.514 2.718-10.18 4.374L54 38.278l-8.667-6.427c-4.766-3.535-9.238-6.447-9.936-6.472-1.533-.055-10.064 8.036-10.064 9.544 0 .587 2.896 5.125 6.434 10.084l6.434 9.017-3.625 7.705c-1.993 4.238-3.904 8.773-4.245 10.079-.488 1.863-3.112 2.744-12.205 4.097L6.542 77.628l.396 7.518.395 7.517 11.077 2.002 11.076 2.002 3.361 8c1.849 4.4 3.674 9.009 4.056 10.243.416 1.345-1.76 5.682-5.438 10.836-3.372 4.726-6.132 9.088-6.132 9.693 0 1.456 8.212 9.894 9.628 9.894.607 0 5.098-2.917 9.98-6.482l8.875-6.482 6.759 2.938c3.717 1.616 8.303 3.572 10.19 4.347 3.091 1.268 3.602 2.554 5.147 12.94l1.716 11.53 7.518-.395 7.517-.396zM72.21 112.578c-7.598-3.846-13.663-10.856-16.297-18.839-3.941-11.94 2.236-27.087 14.017-34.37 5.554-3.434 7.85-4.036 15.402-4.036 7.553 0 9.85.602 15.403 4.036 4.046 2.5 8.06 6.516 10.562 10.562 3.434 5.554 4.035 7.85 4.035 15.402 0 7.553-.601 9.85-4.035 15.403-8.611 13.929-25.096 18.923-39.087 11.842zm23.83-6.245c17.496-8.839 17.496-33.16-.001-42-3.266-1.65-8.084-3-10.707-3-2.622 0-7.44 1.35-10.706 3-17.497 8.84-17.497 33.161 0 42 3.266 1.65 8.084 3 10.706 3 2.623 0 7.44-1.35 10.707-3z" fill="#0a0a0a"/></svg>