<svg xmlns="http://www.w3.org/2000/svg" width="121.333" height="170.667" viewBox="0 0 121.33333 170.66667"><path d="M22.034 168.034c-1.448-1.448-2.916-3.998-3.263-5.667C18.424 160.7 15.7 130.833 12.716 96 9.733 61.167 6.982 30.756 6.602 28.42c-.504-3.103-1.486-4.36-3.646-4.666C1.029 23.48 0 22.405 0 20.667c0-2.52 1.013-2.687 18.333-3.038l18.334-.37v-5.357c0-3.91.884-6.24 3.272-8.63C43.081.133 43.912 0 60.67 0c17.166 0 17.513.059 20.728 3.528 2.286 2.467 3.27 5.062 3.27 8.63v5.1L103 17.63c17.32.35 18.333.518 18.333 3.038 0 1.738-1.029 2.813-2.956 3.087-2.159.307-3.142 1.564-3.648 4.666-.381 2.336-3.138 32.747-6.127 67.58-2.988 34.833-5.712 64.699-6.052 66.367-.34 1.669-1.803 4.219-3.25 5.667-2.492 2.491-4.566 2.633-38.633 2.633-34.068 0-36.142-.142-38.633-2.633zm73.38-4.367c.044-.184 2.912-31.684 6.374-70L108.083 24H13.036l.463 3c.254 1.65 2.884 31.2 5.844 65.667 2.96 34.466 5.696 64.616 6.08 67l.698 4.333h34.606c19.034 0 34.642-.15 34.686-.333zm-58.1-11.902c-.372-.97-.52-27.565-.329-59.098l.348-57.334 3.014-.428 3.014-.427-.347 59.076c-.324 55.083-.505 59.107-2.685 59.527-1.285.247-2.642-.345-3.014-1.316zm20.162-.54c-1.057-2.755-1.057-111.695 0-114.45 1.047-2.727 5.335-2.727 6.381 0 1.057 2.755 1.057 111.695 0 114.45-.445 1.16-1.88 2.108-3.19 2.108s-2.746-.949-3.191-2.109zm21.459 1.266c-.514-.515-.935-27.277-.935-59.473V34.481l3 .426 3 .426v58.649c0 51.892-.238 58.694-2.065 59.046-1.136.219-2.486-.023-3-.537zM77.747 12.333l-.414-5H44l-.414 5-.414 5h34.989z" fill="#0b0b0b"/></svg>