<svg xmlns="http://www.w3.org/2000/svg" width="137.636" height="145.247" viewBox="0 0 137.63612 145.2467"><path d="M0 142.822c0-1.334.898-5.45 1.997-9.148C4.959 123.7 13.3 116.55 30.36 109.364c8.174-3.442 14.758-7.12 16.333-9.122 3.542-4.503 3.333-11.311-.555-18.091-1.758-3.064-3.631-7.025-4.164-8.802-.532-1.777-2.037-4.379-3.345-5.782-3.072-3.298-4.475-10.873-2.646-14.29 1.025-1.916 1.002-5.143-.083-11.368-1.82-10.455-.114-22.512 4.165-29.436C44.655 5.048 53.222.889 65.38.186c8.138-.472 11.313-.1 14.822 1.737a1030.91 1030.91 0 0 0 9.132 4.71C95.04 9.531 99.355 14.011 101.245 19c1.73 4.566 1.867 20.044.23 25.756-.748 2.606-.669 6.123.213 9.425 1.123 4.208.991 6.052-.654 9.167-10.72 20.29-11.693 22.732-11.697 29.359-.005 8.194 1.498 9.836 13.434 14.686 24.225 9.844 31.708 16.802 33.918 31.538l.947 6.316H68.818c-65.64 0-68.818-.112-68.818-2.425zm128.78-7.909c-1.429-6.213-11.316-14.013-24.9-19.644-6.83-2.83-14.456-7.014-16.947-9.296-4.063-3.724-4.6-5.06-5.24-13.035-.657-8.183-.436-9.216 2.797-13.058 1.932-2.295 3.9-6.606 4.376-9.58.566-3.536 1.669-5.617 3.19-6.015 3.174-.83 4.674-8.54 2.037-10.468-1.733-1.268-1.737-2.22-.032-7.885 2.558-8.5 2.486-21.093-.15-26.19-1.154-2.232-4.284-5.045-7-6.29-2.7-1.237-6.577-3.37-8.613-4.738-4.789-3.217-19.751-2.452-26.192 1.34-9.198 5.416-12.389 17.17-9.011 33.193 1.628 7.724 1.665 9.678.215 11.333-2.375 2.71-1 8.929 2.156 9.754 1.409.369 2.534 1.83 2.534 3.292 0 3.648 3.423 11.482 5.923 13.557C55.379 82.39 56 85.287 56 90.87c0 12.998-3.595 16.842-23.333 24.948-5.867 2.409-12.668 5.885-15.114 7.725-4.56 3.43-9.54 10.401-9.548 13.37-.004 1.308 13.044 1.666 60.806 1.666h60.811z" fill="#0c0c0c"/></svg>