<svg xmlns="http://www.w3.org/2000/svg" width="162.667" height="87.641" viewBox="0 0 162.66667 87.641303"><path d="M62.411 85.947c-10.295-2.606-23.405-8.701-34.316-15.955C16.335 62.174 0 47.021 0 43.93c0-3.091 16.334-18.244 28.095-26.063C70.27-10.172 112.218-5.196 153.15 32.701c5.234 4.846 9.517 9.826 9.517 11.065 0 1.24-3.15 5.303-7 9.028-15.167 14.678-30.497 24.51-47.84 30.684-12.197 4.341-33.455 5.497-45.416 2.47zm35.642-6.719C114.415 75.04 140.747 59.433 152 47.254l3.333-3.607L148 36.954c-6.962-6.355-25.91-19.691-27.976-19.691-.532 0-.123 3.15.909 7 8.095 30.214-23.76 58.846-53.13 47.754-19.89-7.512-31.822-29.71-26.026-48.421 1.08-3.483 1.498-6.333.93-6.333-2.21 0-21.085 13.349-28.04 19.832l-7.334 6.834 7.334 6.796C28.743 63.771 48.087 74.912 64 79.14c9.682 2.572 24.206 2.61 34.053.089zm-6.216-13.374c13.891-4.125 23.116-16.712 23.227-31.693.071-9.553-3.733-19.566-8.606-22.653-9.988-6.33-40.26-6.33-50.25 0-4.82 3.055-8.677 13.106-8.602 22.421.077 9.406 2.417 15.656 8.425 22.499 9.077 10.337 21.62 13.64 35.806 9.426zM71.864 47.552c-5.33-3.58-8.769-11.836-7.326-17.587.524-2.086 2.957-5.798 5.407-8.248 3.909-3.908 5.305-4.454 11.388-4.454 6.075 0 7.482.548 11.362 4.428 14.664 14.664-3.652 37.402-20.831 25.861z" fill="#0a0a0a"/></svg>