<?xml version="1.0" encoding="UTF-8" standalone="no"?>
<!-- Created with Inkscape (http://www.inkscape.org/) -->

<svg
   xmlns:dc="http://purl.org/dc/elements/1.1/"
   xmlns:cc="http://creativecommons.org/ns#"
   xmlns:rdf="http://www.w3.org/1999/02/22-rdf-syntax-ns#"
   xmlns:svg="http://www.w3.org/2000/svg"
   xmlns="http://www.w3.org/2000/svg"
   xmlns:sodipodi="http://sodipodi.sourceforge.net/DTD/sodipodi-0.dtd"
   xmlns:inkscape="http://www.inkscape.org/namespaces/inkscape"
   version="1.1"
   id="svg58"
   width="156.4884"
   height="149.71045"
   viewBox="0 0 156.4884 149.71045"
   sodipodi:docname="comment.svg"
   inkscape:version="0.92.1 r15371">
  <metadata
     id="metadata64">
    <rdf:RDF>
      <cc:Work
         rdf:about="">
        <dc:format>image/svg+xml</dc:format>
        <dc:type
           rdf:resource="http://purl.org/dc/dcmitype/StillImage" />
        <dc:title></dc:title>
      </cc:Work>
    </rdf:RDF>
  </metadata>
  <defs
     id="defs62" />
  <sodipodi:namedview
     pagecolor="#ffffff"
     bordercolor="#666666"
     borderopacity="1"
     objecttolerance="10"
     gridtolerance="10"
     guidetolerance="10"
     inkscape:pageopacity="0"
     inkscape:pageshadow="2"
     inkscape:window-width="1366"
     inkscape:window-height="705"
     id="namedview60"
     showgrid="false"
     fit-margin-top="0"
     fit-margin-left="0"
     fit-margin-right="0"
     fit-margin-bottom="0"
     inkscape:zoom="1.3828125"
     inkscape:cx="392.83878"
     inkscape:cy="63.321724"
     inkscape:window-x="-8"
     inkscape:window-y="-8"
     inkscape:window-maximized="1"
     inkscape:current-layer="svg58" />
  <path
     style="fill:#0d0d0d;stroke-width:1.33333337"
     d="m 18.262492,149.26472 c 0,-0.54127 1.20292,-2.67347 2.67315,-4.73822 3.82791,-5.37578 9.30012,-17.52474 9.30472,-20.65756 0.002,-1.57873 -1.98959,-4.02466 -4.88239,-5.99527 C 14.442112,110.43765 3.4436323,91.997512 0.72756231,76.578134 -3.2954977,53.738877 9.6671123,27.598832 32.146952,13.218652 c 47.46264,-30.36148 114.670208,-5.600206 123.592628,45.53521 4.62416,26.501573 -12.56034,55.422948 -40.70894,68.512858 -14.17777,6.59308 -23.327228,8.30732 -41.299568,7.73788 -14.38127,-0.45566 -14.93613,-0.3663 -19.52483,3.1446 -7.46821,5.71404 -18.79814,10.30756 -27.72495,11.2406 -4.52034,0.47246 -8.2188,0.41617 -8.2188,-0.12508 z m 22.18268,-9.95908 c 3.0338,-1.37762 7.94419,-4.69847 10.91197,-7.37967 l 5.39596,-4.87493 10.7547,1.47252 C 106.87465,133.91362 142.83052,111.02994 149.25238,76.4982 154.6264,47.600823 134.0177,19.259993 100.19279,9.032104 87.465812,5.18375 65.770012,5.776812 52.492052,10.336016 c -12.79697,4.394049 -22.26873,10.351709 -30.45071,19.153258 -23.3352797,25.102293 -19.8979597,62.396198 7.68856,83.418466 7.32404,5.58127 7.37897,5.67579 6.6345,11.41536 -0.41287,3.18312 -1.92097,8.43312 -3.35132,11.66667 -2.38319,5.3876 -2.41181,5.87672 -0.34228,5.84989 1.2421,-0.0161 4.74056,-1.15641 7.77437,-2.53402 z"
     id="path68"
     inkscape:connector-curvature="0" />
</svg>
