<?xml version="1.0" encoding="UTF-8" standalone="no"?>
<!-- Created with Inkscape (http://www.inkscape.org/) -->

<svg
   xmlns:dc="http://purl.org/dc/elements/1.1/"
   xmlns:cc="http://creativecommons.org/ns#"
   xmlns:rdf="http://www.w3.org/1999/02/22-rdf-syntax-ns#"
   xmlns:svg="http://www.w3.org/2000/svg"
   xmlns="http://www.w3.org/2000/svg"
   xmlns:sodipodi="http://sodipodi.sourceforge.net/DTD/sodipodi-0.dtd"
   xmlns:inkscape="http://www.inkscape.org/namespaces/inkscape"
   version="1.1"
   id="svg94"
   width="169.25645"
   height="169.98633"
   viewBox="0 0 169.25645 169.98633"
   sodipodi:docname="home.svg"
   inkscape:version="0.92.1 r15371">
  <metadata
     id="metadata100">
    <rdf:RDF>
      <cc:Work
         rdf:about="">
        <dc:format>image/svg+xml</dc:format>
        <dc:type
           rdf:resource="http://purl.org/dc/dcmitype/StillImage" />
        <dc:title></dc:title>
      </cc:Work>
    </rdf:RDF>
  </metadata>
  <defs
     id="defs98" />
  <sodipodi:namedview
     pagecolor="#ffffff"
     bordercolor="#666666"
     borderopacity="1"
     objecttolerance="10"
     gridtolerance="10"
     guidetolerance="10"
     inkscape:pageopacity="0"
     inkscape:pageshadow="2"
     inkscape:window-width="1366"
     inkscape:window-height="705"
     id="namedview96"
     showgrid="false"
     fit-margin-top="0"
     fit-margin-left="0"
     fit-margin-right="0"
     fit-margin-bottom="0"
     inkscape:zoom="1.3828125"
     inkscape:cx="308.13342"
     inkscape:cy="84.610174"
     inkscape:window-x="-8"
     inkscape:window-y="-8"
     inkscape:window-maximized="1"
     inkscape:current-layer="svg94" />
  <path
     style="fill:#050505;stroke-width:1.33333337"
     d="M 16.675785,124.36979 V 78.75324 l -6.37913,6.283211 c -6.8666904,6.763432 -8.8500304,7.548499 -10.19769039,4.036552 -0.6122,-1.595371 1.58061999,-4.784181 7.56427999,-11 C 12.297775,73.258665 23.871535,61.227919 33.382725,51.338012 75.788105,7.2441044 84.077035,-0.82655703 86.044135,0.06328811 87.124875,0.5521736 96.620855,10.034856 107.1463,21.135915 c 10.52544,11.10106 28.98333,30.464146 41.0175,43.02908 15.60948,16.297909 21.64336,23.462857 21.05351,25 -1.31068,3.415583 -3.34018,2.591087 -10.16239,-4.128544 l -6.37913,-6.283211 v 45.61655 45.61654 h -68.000005 -68 z m 44,2.94987 V 91.319662 h 24 24.000005 v 35.999998 36 h 18.66666 18.66667 V 117.607 71.894329 L 116.15258,40.654814 C 99.731485,23.473082 85.734305,9.2280567 85.047755,8.999204 84.361195,8.7703513 70.196635,22.811599 53.570955,40.201978 l -30.2285,31.61887 v 45.749412 45.7494 h 18.66666 18.66667 z M 102.00912,130.653 V 97.986329 H 84.675785 67.342455 V 130.653 163.31966 h 17.33333 17.333335 z m 33.56575,-86.419274 c -2.37975,-2.533124 -2.89908,-4.682791 -2.89908,-12 0,-8.619448 -0.11017,-8.914066 -3.33334,-8.914066 -2.92063,0 -3.33333,0.577778 -3.33333,4.666667 0,2.566667 -0.56598,4.666667 -1.25773,4.666667 -2.45062,0 -5.40894,-5.996201 -5.40894,-10.963342 v -5.036658 h 10 10 v 15.333333 c 0,8.433334 -0.19541,15.333334 -0.43425,15.333334 -0.23883,0 -1.73883,-1.388671 -3.33333,-3.085935 z"
     id="path104"
     inkscape:connector-curvature="0" />
</svg>
