<?xml version="1.0" encoding="UTF-8" standalone="no"?>
<!-- Created with Inkscape (http://www.inkscape.org/) -->

<svg
   xmlns:dc="http://purl.org/dc/elements/1.1/"
   xmlns:cc="http://creativecommons.org/ns#"
   xmlns:rdf="http://www.w3.org/1999/02/22-rdf-syntax-ns#"
   xmlns:svg="http://www.w3.org/2000/svg"
   xmlns="http://www.w3.org/2000/svg"
   xmlns:sodipodi="http://sodipodi.sourceforge.net/DTD/sodipodi-0.dtd"
   xmlns:inkscape="http://www.inkscape.org/namespaces/inkscape"
   version="1.1"
   id="svg106"
   width="170.66669"
   height="144.55702"
   viewBox="0 0 170.66669 144.55702"
   sodipodi:docname="login.svg"
   inkscape:version="0.92.1 r15371">
  <metadata
     id="metadata112">
    <rdf:RDF>
      <cc:Work
         rdf:about="">
        <dc:format>image/svg+xml</dc:format>
        <dc:type
           rdf:resource="http://purl.org/dc/dcmitype/StillImage" />
        <dc:title></dc:title>
      </cc:Work>
    </rdf:RDF>
  </metadata>
  <defs
     id="defs110" />
  <sodipodi:namedview
     pagecolor="#ffffff"
     bordercolor="#666666"
     borderopacity="1"
     objecttolerance="10"
     gridtolerance="10"
     guidetolerance="10"
     inkscape:pageopacity="0"
     inkscape:pageshadow="2"
     inkscape:window-width="1366"
     inkscape:window-height="705"
     id="namedview108"
     showgrid="false"
     fit-margin-top="0"
     fit-margin-left="0"
     fit-margin-right="0"
     fit-margin-bottom="0"
     inkscape:zoom="1.3828125"
     inkscape:cx="265.59077"
     inkscape:cy="62.208807"
     inkscape:window-x="-8"
     inkscape:window-y="-8"
     inkscape:window-maximized="1"
     inkscape:current-layer="svg106" />
  <path
     style="fill:#0b0b0b;stroke-width:1.33333337"
     d="M 0.00744,141.55703 C 0.04364,126.95189 9.93885,117.23757 34.84904,107.35235 45.96536,102.94101 48,100.55296 48,91.917107 c 0,-3.96148 -0.55274,-7.54431 -1.22832,-7.96184 -0.67558,-0.41753 -2.27561,-3.60294 -3.55562,-7.07869 -1.28001,-3.475752 -3.53561,-7.673542 -5.01244,-9.328425 -2.37821,-2.664941 -2.73037,-5.179705 -3.08078,-22 C 34.63378,22.073127 36.27389,15.029058 43.81507,8.2160588 50.40933,2.2585408 57.11893,-0.02079124 68,1.4275577e-4 75.24075,0.01407276 78.01361,0.74023576 84.85335,4.4137518 c 8.15977,4.382487 8.19901,4.388852 11.93986,1.936773 2.86327,-1.876837 6.2966,-2.459838 14.47999,-2.458798 9.8616,0.0013 11.34312,0.37225 18.3679,4.599602 11.71504,7.0498392 12.69012,10.2552432 11.46016,37.6730152 -0.40899,9.116913 -1.19279,13.647644 -2.65259,15.333333 -1.13963,1.315978 -3.66643,5.936242 -5.61511,10.267254 -2.66373,5.920236 -3.328,9.020896 -2.67654,12.493476 0.80989,4.3171 1.70431,5.00733 13.68808,10.56327 7.05186,3.2694 14.83688,7.477683 17.30004,9.351743 4.92869,3.74994 9.44665,12.3412 9.49225,18.05028 l 0.0293,3.66667 h -19.38024 c -19.17497,0 -19.36463,0.0292 -17.90564,2.75533 0.81104,1.51544 1.94253,5.71544 2.51445,9.33333 l 1.03982,6.578 H 68.46754 0 Z m 129.3259,-4.39954 c 0,-0.40308 -0.86935,-2.41402 -1.93189,-4.46875 -3.29821,-6.37803 -10.41149,-11.42104 -24.48781,-17.36082 -18.03817,-7.61157 -21.58031,-11.46617 -21.58031,-23.483953 0,-6.65214 0.57102,-9.19128 2.50099,-11.12126 1.37555,-1.37554 3.2779,-5.53233 4.22746,-9.237304 1.14674,-4.474344 2.54552,-6.950506 4.16568,-7.374186 1.779,-0.465218 2.43921,-1.904686 2.43921,-5.318249 0,-2.574211 -0.62428,-4.888474 -1.38728,-5.142808 -0.91425,-0.304751 -0.64522,-3.638738 0.78902,-9.777779 3.81161,-16.315047 0.75424,-27.61393 -8.29323,-30.648685 -2.18627,-0.733333 -4.95063,-2.311036 -6.14302,-3.5060052 -5.33046,-5.342 -22.8611,-3.881156 -30.49346,2.5410482 -7.61854,6.410584 -9.55436,16.47801 -6.29202,32.722394 1.17026,5.827156 1.14353,7.981131 -0.11793,9.501096 -2.04125,2.459552 -0.56787,10.074802 1.94925,10.074802 1.02664,0 2.68571,3.048642 3.86308,7.098648 1.135,3.904257 3.34365,8.254258 4.90813,9.666668 2.54529,2.2979 2.75292,3.465 1.97394,11.09557 -0.4788,4.69015 -1.45592,9.621333 -2.17137,10.958163 -1.66822,3.11711 -10.04627,8.01035 -22.52687,13.15693 -5.42479,2.23701 -11.85776,5.58857 -14.29548,7.44792 C 12.22161,127.19038 8,133.45557 8,136.49082 c 0,0.95667 19.19766,1.39955 60.66667,1.39955 33.36667,0 60.66667,-0.3298 60.66667,-0.73288 z m 33.33333,-19.88935 c 0,-4.05856 -8.99567,-10.85801 -20.88484,-15.786 -15.35458,-6.364393 -18.10569,-9.204983 -18.84751,-19.460593 -0.47973,-6.632166 -0.13791,-8.260927 2.23082,-10.62965 1.53854,-1.538545 3.17414,-5.15369 3.63467,-8.033657 0.57102,-3.570946 1.63712,-5.445455 3.35209,-5.89393 2.65689,-0.694792 3.49864,-5.999024 1.3183,-8.30728 -0.7097,-0.75135 -0.41469,-5.083965 0.72516,-10.64974 2.42366,-11.834418 0.65727,-18.851038 -5.52869,-21.961683 -2.2,-1.106281 -5.4835,-3.056281 -7.29668,-4.333333 -3.74956,-2.6408902 -12.25842,-3.0354912 -18.50436,-0.858144 -2.30943,0.805072 -4.19896,1.629636 -4.19896,1.832365 0,0.202728 0.95325,2.994033 2.11835,6.202899 1.65536,4.559161 1.90131,8.165601 1.12532,16.500969 -0.54616,5.866667 -0.8751,14.297109 -0.73097,18.734314 0.21513,6.623625 -0.32037,8.925875 -2.99184,12.862504 -1.78964,2.637172 -3.68236,6.206731 -4.20607,7.932354 -0.5237,1.725622 -2.08377,5.008312 -3.46682,7.294872 -3.56246,5.88972 -3.32088,14.49093 0.51474,18.326553 1.66616,1.66615 8.41616,5.26686 15,8.00157 6.58384,2.73471 13.47062,6.13087 15.30396,7.54703 2.93102,2.26409 5.62648,2.57842 22.33333,2.60449 15.82156,0.0247 19,-0.29748 19,-1.92591 z"
     id="path216"
     inkscape:connector-curvature="0" />
</svg>
