<?xml version="1.0" encoding="UTF-8" standalone="no"?>
<!-- Created with Inkscape (http://www.inkscape.org/) -->

<svg
   xmlns:dc="http://purl.org/dc/elements/1.1/"
   xmlns:cc="http://creativecommons.org/ns#"
   xmlns:rdf="http://www.w3.org/1999/02/22-rdf-syntax-ns#"
   xmlns:svg="http://www.w3.org/2000/svg"
   xmlns="http://www.w3.org/2000/svg"
   xmlns:sodipodi="http://sodipodi.sourceforge.net/DTD/sodipodi-0.dtd"
   xmlns:inkscape="http://www.inkscape.org/namespaces/inkscape"
   version="1.1"
   id="svg218"
   width="115.33334"
   height="153.47334"
   viewBox="0 0 115.33334 153.47334"
   sodipodi:docname="password.svg"
   inkscape:version="0.92.1 r15371">
  <metadata
     id="metadata224">
    <rdf:RDF>
      <cc:Work
         rdf:about="">
        <dc:format>image/svg+xml</dc:format>
        <dc:type
           rdf:resource="http://purl.org/dc/dcmitype/StillImage" />
        <dc:title></dc:title>
      </cc:Work>
    </rdf:RDF>
  </metadata>
  <defs
     id="defs222" />
  <sodipodi:namedview
     pagecolor="#ffffff"
     bordercolor="#666666"
     borderopacity="1"
     objecttolerance="10"
     gridtolerance="10"
     guidetolerance="10"
     inkscape:pageopacity="0"
     inkscape:pageshadow="2"
     inkscape:window-width="1366"
     inkscape:window-height="705"
     id="namedview220"
     showgrid="false"
     fit-margin-top="0"
     fit-margin-left="0"
     fit-margin-right="0"
     fit-margin-bottom="0"
     inkscape:zoom="1.3828125"
     inkscape:cx="275.53674"
     inkscape:cy="86.621464"
     inkscape:window-x="-8"
     inkscape:window-y="-8"
     inkscape:window-maximized="1"
     inkscape:current-layer="svg218" />
  <path
     style="fill:#0d0d0d;stroke-width:1.33333337"
     d="M 3.74102,150.25546 0,147.03758 V 105.47335 63.909126 l 3.74102,-3.21789 c 2.84003,-2.442885 5.2949,-3.217888 10.1929,-3.217888 h 6.45188 l 0.52778,-15.666667 c 0.59749,-17.735485 2.37697,-22.655297 11.30678,-31.260382 15.52602,-14.9614247 39.29558,-13.8779327 53.66466,2.446206 7.24687,8.232865 9.44832,15.545581 9.44832,31.385028 v 13.095815 h 6.48685 c 4.54366,0 7.53926,0.827818 10,2.76344 l 3.51315,2.76344 v 42.473122 42.47312 l -3.51315,2.76344 c -3.41345,2.68503 -4.9436,2.76344 -53.92564,2.76344 H 7.48204 Z M 108.00001,105.47335 V 64.806682 h -50 H 8 L 7.64603,104.12463 c -0.19469,21.62487 -0.0607,40.08219 0.29772,41.01627 0.51507,1.34224 11.07229,1.62501 50.35398,1.34872 l 49.70228,-0.3496 z m -54.57143,15.2381 c -1.26218,-1.26218 -2.09524,-4.39999 -2.09524,-7.89195 0,-3.18819 -1.00975,-7.5561 -2.2439,-9.70647 -1.9115,-3.330605 -1.99331,-4.514725 -0.55228,-7.993675 2.32099,-5.60338 8.54335,-8.17495 13.31249,-5.50179 1.91603,1.07396 4.27192,3.59231 5.23531,5.59634 1.48419,3.08738 1.4333,4.28179 -0.33333,7.823085 -1.14673,2.29867 -2.08496,6.69422 -2.08496,9.7679 0,8.46436 -6.26943,12.87522 -11.23809,7.90656 z M 88.66667,44.974317 C 88.66667,30.349096 86.46505,22.828768 80.27663,16.3155 65.28456,0.53645329 38.93721,4.9719863 29.83846,24.806681 c -1.85872,4.051881 -2.45359,8.617054 -2.47584,19 l -0.0293,13.666667 h 30.66667 30.66666 z"
     id="path228"
     inkscape:connector-curvature="0" />
</svg>
