<?xml version="1.0" encoding="UTF-8" standalone="no"?>
<!-- Created with Inkscape (http://www.inkscape.org/) -->

<svg
   xmlns:dc="http://purl.org/dc/elements/1.1/"
   xmlns:cc="http://creativecommons.org/ns#"
   xmlns:rdf="http://www.w3.org/1999/02/22-rdf-syntax-ns#"
   xmlns:svg="http://www.w3.org/2000/svg"
   xmlns="http://www.w3.org/2000/svg"
   xmlns:sodipodi="http://sodipodi.sourceforge.net/DTD/sodipodi-0.dtd"
   xmlns:inkscape="http://www.inkscape.org/namespaces/inkscape"
   version="1.1"
   id="svg10"
   width="146.35042"
   height="148.61604"
   viewBox="0 0 146.35042 148.61604"
   sodipodi:docname="search.svg"
   inkscape:version="0.92.1 r15371">
  <metadata
     id="metadata16">
    <rdf:RDF>
      <cc:Work
         rdf:about="">
        <dc:format>image/svg+xml</dc:format>
        <dc:type
           rdf:resource="http://purl.org/dc/dcmitype/StillImage" />
        <dc:title></dc:title>
      </cc:Work>
    </rdf:RDF>
  </metadata>
  <defs
     id="defs14" />
  <sodipodi:namedview
     pagecolor="#ffffff"
     bordercolor="#666666"
     borderopacity="1"
     objecttolerance="10"
     gridtolerance="10"
     guidetolerance="10"
     inkscape:pageopacity="0"
     inkscape:pageshadow="2"
     inkscape:window-width="1366"
     inkscape:window-height="705"
     id="namedview12"
     showgrid="false"
     fit-margin-top="0"
     fit-margin-left="0"
     fit-margin-right="0"
     fit-margin-bottom="0"
     inkscape:zoom="2.2207572"
     inkscape:cx="228.69009"
     inkscape:cy="90.156302"
     inkscape:window-x="-8"
     inkscape:window-y="-8"
     inkscape:window-maximized="1"
     inkscape:current-layer="svg10" />
  <path
     style="fill:#0b0b0b;stroke-width:1.33333337"
     d="m 114.10186,126.47704 -22.139003,-22.139 -8.49738,4.17722 C 60.308258,119.89911 35.899114,115.79423 17.542964,97.429092 8.0512037,87.932692 2.7548537,77.874816 0.69269374,65.430061 -3.3099163,41.27508 10.344754,16.031104 33.606724,4.580494 42.501624,0.202014 43.560104,0 57.606724,0 c 13.767523,0 15.263289,0.269332 23.706074,4.268601 12.441519,5.893429 22.563482,15.817 28.608022,28.047286 4.13005,8.356588 4.95588,11.536552 5.45231,20.994714 0.70243,13.383127 -2.65009,26.2797 -9.17195,35.282861 l -4.17734,5.76666 22.16329,22.192088 22.16329,22.19209 -5.05479,4.93587 -5.05478,4.93587 z M 76.494525,104.44156 C 103.85675,94.356972 116.6423,62.044875 103.97853,34.983022 98.791977,23.899604 91.078017,16.194409 79.836429,10.868333 71.727233,7.026333 69.82675,6.666666 57.634764,6.666666 c -11.65155,0 -14.28778,0.447424 -20.9002,3.54721 -26.12781,12.248252 -37.18871026,43.834041 -24.4604,69.849766 4.04672,8.27121 15.80228,19.76876 23.85393,23.330378 12.40147,5.48576 27.276937,5.87179 40.366431,1.04754 z"
     id="path28"
     inkscape:connector-curvature="0" />
</svg>
