<?xml version="1.0" encoding="UTF-8" standalone="no"?>
<!-- Created with Inkscape (http://www.inkscape.org/) -->

<svg
   xmlns:dc="http://purl.org/dc/elements/1.1/"
   xmlns:cc="http://creativecommons.org/ns#"
   xmlns:rdf="http://www.w3.org/1999/02/22-rdf-syntax-ns#"
   xmlns:svg="http://www.w3.org/2000/svg"
   xmlns="http://www.w3.org/2000/svg"
   xmlns:sodipodi="http://sodipodi.sourceforge.net/DTD/sodipodi-0.dtd"
   xmlns:inkscape="http://www.inkscape.org/namespaces/inkscape"
   version="1.1"
   id="svg30"
   width="142.27205"
   height="142.48083"
   viewBox="0 0 142.27205 142.48083"
   sodipodi:docname="sent.svg"
   inkscape:version="0.92.1 r15371">
  <metadata
     id="metadata36">
    <rdf:RDF>
      <cc:Work
         rdf:about="">
        <dc:format>image/svg+xml</dc:format>
        <dc:type
           rdf:resource="http://purl.org/dc/dcmitype/StillImage" />
        <dc:title></dc:title>
      </cc:Work>
    </rdf:RDF>
  </metadata>
  <defs
     id="defs34" />
  <sodipodi:namedview
     pagecolor="#ffffff"
     bordercolor="#666666"
     borderopacity="1"
     objecttolerance="10"
     gridtolerance="10"
     guidetolerance="10"
     inkscape:pageopacity="0"
     inkscape:pageshadow="2"
     inkscape:window-width="1366"
     inkscape:window-height="705"
     id="namedview32"
     showgrid="false"
     fit-margin-top="0"
     fit-margin-left="0"
     fit-margin-right="0"
     fit-margin-bottom="0"
     inkscape:zoom="1.3828125"
     inkscape:cx="331.31465"
     inkscape:cy="71.166133"
     inkscape:window-x="-8"
     inkscape:window-y="-8"
     inkscape:window-maximized="1"
     inkscape:current-layer="svg30" />
  <path
     style="fill:#0b0b0b;stroke-width:1.33333337"
     d="m 77.846052,139.59155 c -1.05283,-1.65 -7.16443,-13.5613 -13.58134,-26.46954 L 52.597592,89.652456 27.382482,77.121997 C 13.514172,70.230244 1.5134921,63.811424 0.71430213,62.857953 c -1.06666,-1.272574 -0.95167,-2.224506 0.43238997,-3.579639 C 2.1836921,58.262985 33.878372,44.160742 71.579302,27.939999 130.02236,2.7950001 140.399,-1.2797109 141.97546,0.29675208 143.55192,1.8732131 139.4738,12.251192 114.30907,70.701985 98.075592,108.40791 84.173852,140.00821 83.416312,140.92488 c -1.98797,2.40556 -3.40025,2.06751 -5.57026,-1.33333 z M 104.92206,74.92487 c 12.7601,-29.883333 23.48126,-54.933334 23.8248,-55.666667 0.34353,-0.733334 -15.09953,14.315885 -34.317918,33.44271 l -34.94252,34.776043 10.41958,20.890634 c 5.73077,11.48984 10.73375,20.89062 11.11774,20.89062 0.38398,0 11.13822,-24.45 23.898318,-54.33334 z M 89.708432,47.77855 C 108.76981,28.631406 123.71979,13.181405 122.93062,13.445216 117.52063,15.253681 13.032622,60.732079 13.032412,61.278399 c -2.4e-4,0.626735 39.77716,21.059234 41.34269,21.236544 0.37196,0.04212 16.27196,-15.58925 35.33333,-34.736393 z"
     id="path40"
     inkscape:connector-curvature="0" />
</svg>
