<?xml version="1.0" encoding="UTF-8" standalone="no"?>
<!-- Created with Inkscape (http://www.inkscape.org/) -->

<svg
   xmlns:dc="http://purl.org/dc/elements/1.1/"
   xmlns:cc="http://creativecommons.org/ns#"
   xmlns:rdf="http://www.w3.org/1999/02/22-rdf-syntax-ns#"
   xmlns:svg="http://www.w3.org/2000/svg"
   xmlns="http://www.w3.org/2000/svg"
   xmlns:sodipodi="http://sodipodi.sourceforge.net/DTD/sodipodi-0.dtd"
   xmlns:inkscape="http://www.inkscape.org/namespaces/inkscape"
   version="1.1"
   id="svg42"
   width="170.66667"
   height="170.66667"
   viewBox="0 0 170.66667 170.66667"
   sodipodi:docname="settings.svg"
   inkscape:version="0.92.1 r15371">
  <metadata
     id="metadata48">
    <rdf:RDF>
      <cc:Work
         rdf:about="">
        <dc:format>image/svg+xml</dc:format>
        <dc:type
           rdf:resource="http://purl.org/dc/dcmitype/StillImage" />
        <dc:title></dc:title>
      </cc:Work>
    </rdf:RDF>
  </metadata>
  <defs
     id="defs46" />
  <sodipodi:namedview
     pagecolor="#ffffff"
     bordercolor="#666666"
     borderopacity="1"
     objecttolerance="10"
     gridtolerance="10"
     guidetolerance="10"
     inkscape:pageopacity="0"
     inkscape:pageshadow="2"
     inkscape:window-width="1366"
     inkscape:window-height="705"
     id="namedview44"
     showgrid="false"
     fit-margin-top="0"
     fit-margin-left="0"
     fit-margin-right="0"
     fit-margin-bottom="0"
     inkscape:zoom="1.3828125"
     inkscape:cx="331.20905"
     inkscape:cy="78.101694"
     inkscape:window-x="-8"
     inkscape:window-y="-8"
     inkscape:window-maximized="1"
     inkscape:current-layer="svg42" />
  <path
     style="fill:#0a0a0a;stroke-width:1.33333337"
     d="m 71.472,167 c -0.40693,-2.01666 -1.40203,-7.63533 -2.21134,-12.48593 l -1.47146,-8.81927 -7.06945,-2.40297 -7.06946,-2.40299 -9.66954,7.03303 -9.66953,7.03303 -9.3295,-9.3295 -9.32949,-9.32949 6.95942,-9.96765 6.95942,-9.96766 -2.4175,-6.80661 C 24.51973,102.13825 25.47665,102.64735 9,99.895862 L 0,98.392922 V 85.302402 72.211883 l 3.66666,-0.739875 c 2.01667,-0.406931 7.60685,-1.397073 12.42264,-2.200317 l 8.75596,-1.460443 2.38961,-7.030117 2.38961,-7.030119 -6.94425,-9.732 -6.94425,-9.732001 9.31738,-9.317388 9.31739,-9.317388 10.04317,7.012139 10.04316,7.012139 6.67438,-2.400071 6.67437,-2.400071 1.46315,-8.771519 C 70.07371,11.280517 71.06507,5.6833334 71.472,3.6666667 L 72.21188,0 H 85.3024 98.39292 l 1.50294,9.0000002 c 2.6805,16.0515098 2.41711,15.4927628 8.48507,18.0000008 3.1059,1.283333 6.37804,2.333333 7.27142,2.333333 0.89339,0 5.87819,-3.103717 11.07735,-6.89715 l 9.45302,-6.897149 9.27648,9.276491 9.2765,9.276491 -7.21815,10.370157 -7.21815,10.370159 2.74019,6.485834 2.74019,6.485832 8.77678,1.464068 c 4.82723,0.805237 10.42678,1.79701 12.44344,2.203941 l 3.66667,0.739875 v 13.090519 13.09052 l -9,1.50294 c -16.40093,2.738848 -15.62519,2.347368 -18.59888,9.385898 l -2.75025,6.50968 7.39616,10.20452 7.39616,10.20452 -9.35559,9.3556 -9.3556,9.3556 -10.30096,-7.2982 -10.30096,-7.2982 -6.51233,2.75139 c -7.04152,2.97495 -6.64963,2.19856 -9.38856,18.6 l -1.50294,9 H 85.3024 72.21188 Z m 23.19283,-14.92133 2.00184,-11.25467 7.78612,-3.01454 c 4.28236,-1.658 8.58376,-3.67652 9.55866,-4.48562 1.35818,-1.12719 3.98076,0.10457 11.2187,5.2692 5.19539,3.70716 9.86543,6.7403 10.37787,6.7403 1.39986,0 9.72532,-8.33971 9.72532,-9.74198 0,-0.67036 -2.99183,-5.33223 -6.6485,-10.35969 l -6.64849,-9.14085 2.53463,-4.37874 c 1.39405,-2.40831 3.24918,-6.8231 4.12254,-9.81065 l 1.58791,-5.431905 11.52596,-1.901428 11.52595,-1.901429 0.39384,-7.46465 0.39385,-7.464651 -11.90052,-1.705759 -11.90052,-1.70576 -1.60719,-5.496256 c -0.88396,-3.022941 -2.76634,-7.49816 -4.18308,-9.944931 l -2.57589,-4.448672 6.68976,-9.197576 c 3.67936,-5.058667 6.68975,-9.628199 6.68975,-10.154518 0,-1.418125 -8.3251,-9.750561 -9.74198,-9.750561 -0.67036,0 -5.33223,2.991821 -10.35969,6.648491 l -9.14085,6.64849 -4.37874,-2.534624 c -2.40831,-1.394044 -6.8231,-3.249186 -9.81065,-4.122538 L 96.46952,30.385239 94.56809,18.859286 92.66666,7.3333335 85.22359,6.9401332 77.78052,6.5469328 76.07089,18.038295 c -1.55741,10.468187 -2.02251,11.612831 -5.2236,12.855575 -1.93268,0.750317 -6.51396,2.718551 -10.18063,4.373852 L 54,38.277362 45.33333,31.850695 c -4.76667,-3.534666 -9.2381,-6.447073 -9.93652,-6.472015 -1.53262,-0.05473 -10.06348,8.036375 -10.06348,9.544721 0,0.586826 2.89527,5.124526 6.43394,10.083779 l 6.43394,9.016821 -3.62496,7.705143 c -1.99374,4.237829 -3.90428,8.773215 -4.24565,10.078635 -0.48722,1.863124 -3.11152,2.744065 -12.20445,4.096869 l -11.58377,1.723379 0.39547,7.517483 0.39548,7.517481 11.07627,2.001839 11.07627,2.001839 3.36126,8.000001 c 1.84869,4.4 3.67371,9.00932 4.0556,10.24294 0.41646,1.3453 -1.75967,5.68194 -5.43753,10.83599 -3.37253,4.72617 -6.13187,9.08828 -6.13187,9.69358 0,1.45542 8.21144,9.89416 9.62766,9.89416 0.6075,0 5.09843,-2.91707 9.97984,-6.48239 l 8.8753,-6.48238 6.7586,2.93854 c 3.71723,1.6162 8.30291,3.57225 10.19041,4.34679 3.09085,1.26834 3.60225,2.55388 5.14734,12.93932 l 1.71554,11.53106 7.51749,-0.39546 7.51748,-0.39548 z M 72.21122,112.57787 C 64.61308,108.73217 58.54843,101.72183 55.91396,93.739294 51.97303,81.798182 58.14972,66.652191 69.93069,59.368582 c 5.55383,-3.433672 7.85006,-4.035248 15.40264,-4.035248 7.55258,0 9.84882,0.601576 15.40265,4.035248 4.04553,2.501161 8.06095,6.516575 10.56211,10.562107 3.43367,5.553832 4.03525,7.850066 4.03525,15.402646 0,7.55258 -0.60158,9.848814 -4.03525,15.402645 -8.61147,13.92872 -25.09633,18.92303 -39.08687,11.84189 z m 23.82883,-6.24453 c 17.49701,-8.839222 17.49701,-33.160788 0,-42.000005 -3.26613,-1.65 -8.08416,-3 -10.70672,-3 -2.62256,0 -7.44058,1.35 -10.70672,3 -17.49701,8.839217 -17.49701,33.160783 0,42.000005 3.26614,1.65 8.08416,3 10.70672,3 2.62256,0 7.44059,-1.35 10.70672,-3 z"
     id="path52"
     inkscape:connector-curvature="0" />
</svg>
