<?xml version="1.0" encoding="UTF-8" standalone="no"?>
<!-- Created with Inkscape (http://www.inkscape.org/) -->

<svg
   xmlns:dc="http://purl.org/dc/elements/1.1/"
   xmlns:cc="http://creativecommons.org/ns#"
   xmlns:rdf="http://www.w3.org/1999/02/22-rdf-syntax-ns#"
   xmlns:svg="http://www.w3.org/2000/svg"
   xmlns="http://www.w3.org/2000/svg"
   xmlns:sodipodi="http://sodipodi.sourceforge.net/DTD/sodipodi-0.dtd"
   xmlns:inkscape="http://www.inkscape.org/namespaces/inkscape"
   version="1.1"
   id="svg54"
   width="121.33333"
   height="170.66667"
   viewBox="0 0 121.33333 170.66667"
   sodipodi:docname="trash.svg"
   inkscape:version="0.92.1 r15371">
  <metadata
     id="metadata60">
    <rdf:RDF>
      <cc:Work
         rdf:about="">
        <dc:format>image/svg+xml</dc:format>
        <dc:type
           rdf:resource="http://purl.org/dc/dcmitype/StillImage" />
        <dc:title></dc:title>
      </cc:Work>
    </rdf:RDF>
  </metadata>
  <defs
     id="defs58" />
  <sodipodi:namedview
     pagecolor="#ffffff"
     bordercolor="#666666"
     borderopacity="1"
     objecttolerance="10"
     gridtolerance="10"
     guidetolerance="10"
     inkscape:pageopacity="0"
     inkscape:pageshadow="2"
     inkscape:window-width="1366"
     inkscape:window-height="705"
     id="namedview56"
     showgrid="false"
     fit-margin-top="0"
     fit-margin-left="0"
     fit-margin-right="0"
     fit-margin-bottom="0"
     inkscape:zoom="1.3828125"
     inkscape:cx="296.41809"
     inkscape:cy="93.288134"
     inkscape:window-x="-8"
     inkscape:window-y="-8"
     inkscape:window-maximized="1"
     inkscape:current-layer="svg54" />
  <path
     style="fill:#0b0b0b;stroke-width:1.33333337"
     d="m 22.03391,168.03392 c -1.44801,-1.44801 -2.9164,-3.99801 -3.26309,-5.66666 C 18.42412,160.6986 15.69964,130.83334 12.7164,95.999997 9.73316,61.166667 6.9817,30.755796 6.60206,28.420288 6.09767,25.317406 5.1158,24.060731 2.95589,23.753621 1.02898,23.479641 0,22.405031 0,20.666666 0,18.147278 1.01254,17.979511 18.33333,17.629039 l 18.33334,-0.370958 v -5.356313 c 0,-3.9091725 0.8842,-6.2405215 3.27272,-8.6290405 C 43.08087,0.1312547 43.91227,0 60.66972,0 77.8354,0 78.18201,0.058997 81.397,3.5280305 c 2.28612,2.466763 3.26967,5.062465 3.26967,8.6290405 v 5.101011 L 103,17.62904 c 17.32079,0.350472 18.33333,0.518239 18.33333,3.037627 0,1.738365 -1.02898,2.812975 -2.95589,3.086955 -2.15927,0.307018 -3.14256,1.564712 -3.64851,4.666667 -0.38093,2.335508 -3.13784,32.746379 -6.12645,67.579709 -2.98862,34.833342 -5.71205,64.698602 -6.05208,66.367262 -0.34003,1.66865 -1.80297,4.21865 -3.25098,5.66666 -2.49144,2.49143 -4.56511,2.63275 -38.63275,2.63275 -34.06765,0 -36.14132,-0.14132 -38.63276,-2.63275 z m 73.37957,-4.36725 c 0.0441,-0.18333 2.91282,-31.68333 6.37498,-70.000003 l 6.29483,-69.666668 H 60.55987 13.03646 L 13.49886,27 c 0.25432,1.65 2.88435,31.2 5.84451,65.666667 2.96015,34.466673 5.69605,64.616673 6.07978,67.000003 L 26.12083,164 h 34.60625 c 19.03344,0 34.64232,-0.15 34.6864,-0.33333 z M 37.31465,151.76522 C 36.94214,150.79435 36.79396,124.2 36.98535,92.666667 l 0.34798,-57.333334 3.01394,-0.427895 3.01394,-0.427893 -0.34727,59.076532 c -0.3238,55.083323 -0.50527,59.106943 -2.68464,59.526433 -1.28555,0.24745 -2.64214,-0.34443 -3.01465,-1.31529 z m 20.16133,-0.54094 c -1.05692,-2.75429 -1.05692,-111.694274 0,-114.448564 1.04684,-2.728008 5.33453,-2.728008 6.38137,0 1.05692,2.75429 1.05692,111.694274 0,114.448564 -0.44513,1.15999 -1.88094,2.10906 -3.19068,2.10906 -1.30975,0 -2.74556,-0.94907 -3.19069,-2.10906 z m 21.459,1.26626 C 78.42074,151.9763 78,125.21383 78,93.018377 v -58.53718 l 3,0.426068 3,0.426069 v 58.648404 c 0,51.892542 -0.23788,58.694222 -2.06502,59.046092 -1.13576,0.21873 -2.48576,-0.0231 -3,-0.53729 z M 77.74715,12.333333 77.33333,7.3333335 H 60.66667 44 l -0.41382,4.9999995 -0.41382,5 h 17.49431 17.4943 z"
     id="path64"
     inkscape:connector-curvature="0" />
</svg>
