<?xml version="1.0" encoding="UTF-8" standalone="no"?>
<!-- Created with Inkscape (http://www.inkscape.org/) -->

<svg
   xmlns:dc="http://purl.org/dc/elements/1.1/"
   xmlns:cc="http://creativecommons.org/ns#"
   xmlns:rdf="http://www.w3.org/1999/02/22-rdf-syntax-ns#"
   xmlns:svg="http://www.w3.org/2000/svg"
   xmlns="http://www.w3.org/2000/svg"
   xmlns:sodipodi="http://sodipodi.sourceforge.net/DTD/sodipodi-0.dtd"
   xmlns:inkscape="http://www.inkscape.org/namespaces/inkscape"
   version="1.1"
   id="svg66"
   width="137.63612"
   height="145.2467"
   viewBox="0 0 137.63612 145.2467"
   sodipodi:docname="user.svg"
   inkscape:version="0.92.1 r15371">
  <metadata
     id="metadata72">
    <rdf:RDF>
      <cc:Work
         rdf:about="">
        <dc:format>image/svg+xml</dc:format>
        <dc:type
           rdf:resource="http://purl.org/dc/dcmitype/StillImage" />
        <dc:title></dc:title>
      </cc:Work>
    </rdf:RDF>
  </metadata>
  <defs
     id="defs70" />
  <sodipodi:namedview
     pagecolor="#ffffff"
     bordercolor="#666666"
     borderopacity="1"
     objecttolerance="10"
     gridtolerance="10"
     guidetolerance="10"
     inkscape:pageopacity="0"
     inkscape:pageshadow="2"
     inkscape:window-width="1366"
     inkscape:window-height="705"
     id="namedview68"
     showgrid="false"
     fit-margin-top="0"
     fit-margin-left="0"
     fit-margin-right="0"
     fit-margin-bottom="0"
     inkscape:zoom="1.3828125"
     inkscape:cx="246.12436"
     inkscape:cy="69.830514"
     inkscape:window-x="-8"
     inkscape:window-y="-8"
     inkscape:window-maximized="1"
     inkscape:current-layer="svg66" />
  <path
     style="fill:#0c0c0c;stroke-width:1.33333337"
     d="m 5e-5,142.82203 c 0,-1.33356 0.89843,-5.44999 1.9965,-9.1476 2.96244,-9.97563 11.30371,-17.12453 28.36443,-24.30982 8.17355,-3.44237 14.75819,-7.12002 16.33334,-9.1225 C 50.23615,95.739404 50.02698,88.930932 46.13851,82.150791 44.38133,79.086872 42.50792,75.126156 41.9754,73.349197 41.44287,71.572238 39.9376,68.970321 38.63035,67.567158 35.55787,64.269233 34.15513,56.693967 35.98411,53.276497 37.00904,51.361391 36.98555,48.134375 35.90131,41.908512 34.08073,31.453979 35.78664,19.397393 40.0662,12.472916 44.65496,5.0481443 53.22234,0.88931325 65.378639,0.18559625 c 8.138487,-0.4711296 11.313243,-0.0989 14.822395,1.73786105 2.4561,1.285572 6.56564,3.40446 9.13231,4.708639 5.70633,2.899512 10.02122,7.3799077 11.911176,12.3680667 1.72983,4.565517 1.86782,20.043495 0.22963,25.755551 -0.74754,2.60652 -0.66788,6.123647 0.21348,9.425683 1.1232,4.20806 0.99169,6.051832 -0.65381,9.166452 -10.720036,20.291042 -11.692366,22.731676 -11.696376,29.358865 -0.005,8.193786 1.49761,9.836536 13.433066,14.686346 24.22585,9.84385 31.70864,16.80144 33.91851,31.53786 l 0.9471,6.31578 H 68.818064 C 3.17843,145.2467 0,145.13471 0,142.82203 Z m 128.77956,-7.90867 c -1.42822,-6.21321 -11.3153,-14.01327 -24.90018,-19.64412 -6.830176,-2.83107 -14.455876,-7.01451 -16.945986,-9.29653 -4.06327,-3.7237 -4.60062,-5.06022 -5.24074,-13.034776 -0.65684,-8.182857 -0.43556,-9.215677 2.79779,-13.058293 1.93108,-2.294955 3.90012,-6.605763 4.37565,-9.579576 0.56552,-3.536544 1.66886,-5.61725 3.18955,-6.014918 3.17404,-0.830033 4.67472,-8.540176 2.03755,-10.46852 -1.73309,-1.267268 -1.73698,-2.21968 -0.0322,-7.884233 2.55816,-8.500122 2.48632,-21.093082 -0.14941,-26.190022 -1.15454,-2.232625 -4.28475,-5.045112 -7,-6.289475 -2.70137,-1.238001 -6.57756,-3.370328 -8.613758,-4.7385047 C 73.509298,5.4968173 58.547,6.2623683 52.10567,10.054522 c -9.19792,5.415025 -12.38871,17.168769 -9.01068,33.192174 1.62836,7.724022 1.66538,9.678186 0.2147,11.333334 -2.3749,2.709613 -1.00023,8.928891 2.15602,9.754269 1.40913,0.368496 2.53435,1.829834 2.53435,3.291406 0,3.647844 3.42268,11.482007 5.92296,13.55706 1.45629,1.20861 2.07704,4.104032 2.07704,9.688139 0,12.998256 -3.59529,16.842286 -23.33334,24.947636 -5.86666,2.40913 -12.66775,5.88552 -15.11352,7.7253 -4.5611,3.43102 -9.53928,10.40156 -9.54816,13.36952 -0.004,1.30904 13.04349,1.66667 60.806226,1.66667 h 60.811214 z"
     id="path76"
     inkscape:connector-curvature="0" />
</svg>
