<?xml version="1.0" encoding="UTF-8" standalone="no"?>
<!-- Created with Inkscape (http://www.inkscape.org/) -->

<svg
   xmlns:dc="http://purl.org/dc/elements/1.1/"
   xmlns:cc="http://creativecommons.org/ns#"
   xmlns:rdf="http://www.w3.org/1999/02/22-rdf-syntax-ns#"
   xmlns:svg="http://www.w3.org/2000/svg"
   xmlns="http://www.w3.org/2000/svg"
   xmlns:sodipodi="http://sodipodi.sourceforge.net/DTD/sodipodi-0.dtd"
   xmlns:inkscape="http://www.inkscape.org/namespaces/inkscape"
   version="1.1"
   id="svg78"
   width="162.66667"
   height="87.641304"
   viewBox="0 0 162.66667 87.641303"
   sodipodi:docname="view.svg"
   inkscape:version="0.92.1 r15371">
  <metadata
     id="metadata84">
    <rdf:RDF>
      <cc:Work
         rdf:about="">
        <dc:format>image/svg+xml</dc:format>
        <dc:type
           rdf:resource="http://purl.org/dc/dcmitype/StillImage" />
        <dc:title></dc:title>
      </cc:Work>
    </rdf:RDF>
  </metadata>
  <defs
     id="defs82" />
  <sodipodi:namedview
     pagecolor="#ffffff"
     bordercolor="#666666"
     borderopacity="1"
     objecttolerance="10"
     gridtolerance="10"
     guidetolerance="10"
     inkscape:pageopacity="0"
     inkscape:pageshadow="2"
     inkscape:window-width="1366"
     inkscape:window-height="705"
     id="namedview80"
     showgrid="false"
     fit-margin-top="0"
     fit-margin-left="0"
     fit-margin-right="0"
     fit-margin-bottom="0"
     inkscape:zoom="1.3828125"
     inkscape:cx="241.87572"
     inkscape:cy="44.43525"
     inkscape:window-x="-8"
     inkscape:window-y="-8"
     inkscape:window-maximized="1"
     inkscape:current-layer="svg78" />
  <path
     style="fill:#0a0a0a;stroke-width:1.33333337"
     d="M 62.411262,85.947318 C 52.11609,83.341368 39.00582,77.245868 28.09461,69.992108 16.33436,62.173908 0,47.020805 0,43.929217 0,40.837629 16.33436,25.684523 28.09461,17.866323 c 42.175591,-28.038279 84.12296,-23.0622115 125.0553,14.83486 5.23423,4.846082 9.51676,9.825374 9.51676,11.065093 0,1.239718 -3.15,5.302418 -7,9.028221 -15.16708,14.677801 -30.49694,24.509891 -47.84015,30.683171 -12.196633,4.34136 -33.454032,5.49733 -45.415258,2.46965 z m 35.64194,-6.71926 C 114.41533,75.039128 140.7472,59.432518 152,47.254406 L 155.33334,43.64697 148,36.953508 C 141.03848,30.599415 122.09025,17.26255 120.02425,17.26255 c -0.53182,0 -0.12302,3.15 0.90845,7 C 129.02757,54.477017 97.173502,83.108928 67.803878,72.017198 47.91236,64.504968 35.98075,42.306921 41.77707,23.595883 c 1.07908,-3.483333 1.49766,-6.333333 0.93018,-6.333333 -2.21009,0 -21.08489,13.349452 -28.04058,19.83208 l -7.33333,6.834587 7.33333,6.796083 c 14.07658,13.045308 33.42077,24.186668 49.333333,28.413708 9.682183,2.572 24.206363,2.60998 34.053199,0.089 z m -6.21575,-13.37409 C 105.72804,61.728898 114.95278,49.14165 115.0641,34.160941 c 0.071,-9.553191 -3.73271,-19.565521 -8.60605,-22.653366 -9.988468,-6.3289065 -40.260953,-6.3289065 -50.24943,0 -4.82141,3.054943 -8.6779,13.106919 -8.60218,22.421642 0.0765,9.40594 2.41674,15.655731 8.42469,22.498415 9.076477,10.337526 21.619098,13.639486 35.806322,9.426336 z M 71.863847,47.552418 c -5.329913,-3.580481 -8.768692,-11.836486 -7.325368,-17.587144 0.523623,-2.086284 2.956676,-5.797876 5.406784,-8.247984 3.908525,-3.908524 5.304869,-4.45474 11.388074,-4.45474 6.074905,0 7.481593,0.54826 11.361508,4.428175 14.663965,14.663963 -3.651375,37.402463 -20.830998,25.861693 z"
     id="path90"
     inkscape:connector-curvature="0" />
</svg>
