<?xml version="1.0" encoding="UTF-8" standalone="no"?>
<!-- Created with Inkscape (http://www.inkscape.org/) -->

<svg
   xmlns:dc="http://purl.org/dc/elements/1.1/"
   xmlns:cc="http://creativecommons.org/ns#"
   xmlns:rdf="http://www.w3.org/1999/02/22-rdf-syntax-ns#"
   xmlns:svg="http://www.w3.org/2000/svg"
   xmlns="http://www.w3.org/2000/svg"
   xmlns:sodipodi="http://sodipodi.sourceforge.net/DTD/sodipodi-0.dtd"
   xmlns:inkscape="http://www.inkscape.org/namespaces/inkscape"
   version="1.1"
   id="svg92"
   width="146.35042"
   height="148.61604"
   viewBox="0 0 146.35042 148.61604"
   sodipodi:docname="zoom.svg"
   inkscape:version="0.92.1 r15371">
  <metadata
     id="metadata98">
    <rdf:RDF>
      <cc:Work
         rdf:about="">
        <dc:format>image/svg+xml</dc:format>
        <dc:type
           rdf:resource="http://purl.org/dc/dcmitype/StillImage" />
        <dc:title></dc:title>
      </cc:Work>
    </rdf:RDF>
  </metadata>
  <defs
     id="defs96" />
  <sodipodi:namedview
     pagecolor="#ffffff"
     bordercolor="#666666"
     borderopacity="1"
     objecttolerance="10"
     gridtolerance="10"
     guidetolerance="10"
     inkscape:pageopacity="0"
     inkscape:pageshadow="2"
     inkscape:window-width="1366"
     inkscape:window-height="705"
     id="namedview94"
     showgrid="false"
     fit-margin-top="0"
     fit-margin-left="0"
     fit-margin-right="0"
     fit-margin-bottom="0"
     inkscape:zoom="1.3828125"
     inkscape:cx="313.89466"
     inkscape:cy="69.553894"
     inkscape:window-x="-8"
     inkscape:window-y="-8"
     inkscape:window-maximized="1"
     inkscape:current-layer="svg92" />
  <path
     style="fill:#0b0b0b;stroke-width:1.33333337"
     d="m 114.10186,126.47704 -22.138997,-22.139 -8.49738,4.17722 C 60.308263,119.89911 35.899113,115.79423 17.542963,97.429093 8.0512034,87.932691 2.7548634,77.874816 0.69269338,65.430061 -3.3099166,41.27508 10.344763,16.031104 33.606723,4.580494 42.501633,0.202014 43.560103,0 57.606723,0 c 13.76753,0 15.26329,0.269332 23.70608,4.268601 12.44152,5.893429 22.563477,15.817 28.608017,28.047286 4.13005,8.356588 4.95588,11.536552 5.45231,20.994714 0.70243,13.383127 -2.65009,26.2797 -9.17195,35.282859 l -4.17734,5.766663 22.16329,22.192087 22.16329,22.19209 -5.05479,4.93587 -5.05478,4.93587 z M 76.494523,104.44156 C 103.85675,94.356973 116.6423,62.044875 103.97853,34.983022 98.791983,23.899604 91.078023,16.194409 79.836433,10.868333 c -8.1092,-3.842 -10.00968,-4.201667 -22.20167,-4.201667 -11.65155,0 -14.28777,0.447424 -20.90019,3.54721 -26.12782,12.248252 -37.18871962,43.834041 -24.46041,69.849766 4.04673,8.271211 15.80229,19.768761 23.85393,23.330378 12.40148,5.48576 27.27694,5.87179 40.36643,1.04754 z M 54.301433,72.666668 V 60.666667 h -12 c -11.91111,0 -12,-0.02469 -12,-3.333333 0,-3.308641 0.0889,-3.333333 12,-3.333333 h 12 V 42 c 0,-11.860489 0.0382,-12 3.28142,-12 3.20698,0 3.29016,0.264684 3.66667,11.666667 l 0.38524,11.666667 11.66667,0.385244 c 11.40198,0.376504 11.66666,0.459691 11.66666,3.666667 0,3.243273 -0.13951,3.281422 -12,3.281422 h -12 v 12.000001 c 0,11.911111 -0.0247,12 -3.33333,12 -3.30864,0 -3.33333,-0.08889 -3.33333,-12 z"
     id="path102"
     inkscape:connector-curvature="0" />
</svg>
